<svg id="amazon" xmlns="http://www.w3.org/2000/svg" width="109.619" height="21" viewBox="0 0 109.619 21">
  <g id="amazonpay-logo-rgb_clr">
    <path id="Shape" d="M8.525,12.176a.445.445,0,0,1-.509.052,5.226,5.226,0,0,1-1.234-1.437,4.274,4.274,0,0,1-3.555,1.567A3.06,3.06,0,0,1,0,9,3.675,3.675,0,0,1,2.29,5.475a14.952,14.952,0,0,1,4.053-.748V4.449a2.775,2.775,0,0,0-.261-1.565,1.436,1.436,0,0,0-1.21-.559A1.644,1.644,0,0,0,3.137,3.619a.452.452,0,0,1-.382.4L.683,3.788a.382.382,0,0,1-.321-.45C.841.8,3.131.039,5.182.039A4.874,4.874,0,0,1,8.426,1.111c1.048.981.954,2.29.954,3.711V8.179a2.937,2.937,0,0,0,.815,2,.414.414,0,0,1,0,.572c-.441.368-1.223,1.048-1.652,1.431h0ZM6.352,6.921a4.262,4.262,0,0,1-.4,2.29,1.753,1.753,0,0,1-1.494.981c-.826,0-1.309-.63-1.309-1.565,0-1.836,1.647-2.169,3.205-2.169v.464Z" transform="translate(0 -0.011)" fill="#232f3e" fill-rule="evenodd"/>
    <path id="Path" d="M18.8,12.088H16.642a.4.4,0,0,1-.382-.365V.657a.408.408,0,0,1,.412-.395h2.009a.4.4,0,0,1,.382.382V2.088h.04a2.961,2.961,0,0,1,5.634,0,3.183,3.183,0,0,1,5.482-.849c.685.931.544,2.29.544,3.469v6.981a.407.407,0,0,1-.416.4H28.193a.4.4,0,0,1-.382-.4V5.826a14.1,14.1,0,0,0-.061-2.072A1.123,1.123,0,0,0,26.483,2.8a1.431,1.431,0,0,0-1.288.906,6.7,6.7,0,0,0-.2,2.12v5.863a.407.407,0,0,1-.414.4h-2.16a.4.4,0,0,1-.382-.4V5.826c0-1.234.191-3.053-1.336-3.053s-1.488,1.769-1.488,3.053v5.863a.407.407,0,0,1-.416.4" transform="translate(-4.367 -0.006)" fill="#232f3e" fill-rule="evenodd"/>
    <path id="Shape-2" data-name="Shape" d="M48.822,10.166a2.936,2.936,0,0,1-.815-2V4.812c0-1.423.1-2.73-.954-3.711A4.88,4.88,0,0,0,43.809.029c-2.051,0-4.341.763-4.822,3.3a.382.382,0,0,0,.322.452L41.4,4a.454.454,0,0,0,.382-.4,1.643,1.643,0,0,1,1.732-1.294,1.431,1.431,0,0,1,1.21.561,2.75,2.75,0,0,1,.263,1.563v.273a14.864,14.864,0,0,0-4.053.746,3.662,3.662,0,0,0-2.3,3.524,3.059,3.059,0,0,0,3.226,3.358,4.275,4.275,0,0,0,3.553-1.566,5.221,5.221,0,0,0,1.236,1.437.448.448,0,0,0,.509-.05h0c.429-.382,1.212-1.063,1.652-1.431C49,10.6,48.967,10.364,48.822,10.166ZM44.586,9.2a1.751,1.751,0,0,1-1.492.979c-.826,0-1.309-.63-1.309-1.563,0-1.837,1.647-2.169,3.205-2.169v.466A4.268,4.268,0,0,1,44.586,9.2Z" transform="translate(-10.377 -0.008)" fill="#232f3e" fill-rule="evenodd"/>
    <path id="Path-2" data-name="Path" d="M54.91,2.272V.691a.382.382,0,0,1,.4-.4H62.4a.395.395,0,0,1,.408.4V2.047a2.169,2.169,0,0,1-.532.994L58.6,8.281a7.848,7.848,0,0,1,4.041.868.721.721,0,0,1,.382.616V11.46c0,.233-.254.5-.523.362a8.159,8.159,0,0,0-7.485.013c-.246.132-.5-.134-.5-.366V9.857a1.908,1.908,0,0,1,.263-1.086l4.253-6.106H55.32a.395.395,0,0,1-.41-.4" transform="translate(-14.641 -0.078)" fill="#232f3e" fill-rule="evenodd"/>
    <path id="Shape-3" data-name="Shape" d="M72.427,2.28c-1.589,0-1.69,2.164-1.69,3.515s-.019,4.236,1.669,4.236S74.157,7.7,74.157,6.283a10.2,10.2,0,0,0-.322-2.933A1.355,1.355,0,0,0,72.427,2.28ZM72.406.021c3.2,0,4.93,2.748,4.93,6.239,0,3.375-1.908,6.052-4.93,6.052-3.139,0-4.848-2.748-4.848-6.169S69.288.021,72.406.021Z" transform="translate(-18.146 -0.006)" fill="#232f3e" fill-rule="evenodd"/>
    <path id="Path-3" data-name="Path" d="M85.7,12.059H83.552a.4.4,0,0,1-.382-.4V.6a.406.406,0,0,1,.414-.363h2a.406.406,0,0,1,.382.309V2.234h.042C86.611.721,87.456,0,88.944,0a2.835,2.835,0,0,1,2.517,1.3,7.049,7.049,0,0,1,.563,3.446v6.962a.41.41,0,0,1-.414.347H89.442a.4.4,0,0,1-.382-.347V5.7c0-1.21.141-2.98-1.349-2.98a1.416,1.416,0,0,0-1.248.885,4.933,4.933,0,0,0-.341,2.1v5.955a.412.412,0,0,1-.42.4" transform="translate(-22.34 0)" fill="#232f3e" fill-rule="evenodd"/>
    <path id="Shape-4" data-name="Shape" d="M108.674,1.953a5.044,5.044,0,0,0-3.028,1.04v6.3a4.9,4.9,0,0,0,2.982,1.086q3.118,0,3.118-4.2t-3.072-4.226Zm-3.187-.294a6.371,6.371,0,0,1,1.83-1.13A5.369,5.369,0,0,1,109.3.148a4.647,4.647,0,0,1,1.967.4,4.026,4.026,0,0,1,1.49,1.175A5.477,5.477,0,0,1,113.7,3.6a8.668,8.668,0,0,1,.328,2.48,8.512,8.512,0,0,1-.351,2.53,5.759,5.759,0,0,1-.982,1.921,4.447,4.447,0,0,1-1.538,1.233,4.546,4.546,0,0,1-2.009.422,5.04,5.04,0,0,1-3.5-1.336v5.3a.4.4,0,0,1-.452.452h-1.336a.4.4,0,0,1-.452-.452V.936a.4.4,0,0,1,.452-.452h.994a.477.477,0,0,1,.521.452l.113.723Z" transform="translate(-27.774 -0.04)" fill="#232f3e" fill-rule="evenodd"/>
    <path id="Shape-5" data-name="Shape" d="M124.141,10.553a4.621,4.621,0,0,0,1.559-.292,5.918,5.918,0,0,0,1.559-.859V7.1a11.4,11.4,0,0,0-1.187-.214,9.431,9.431,0,0,0-1.208-.08q-2.556,0-2.555,1.967a1.764,1.764,0,0,0,.475,1.322A1.856,1.856,0,0,0,124.141,10.553ZM121.5,2.459l-.17.057a.6.6,0,0,1-.191.034c-.191,0-.294-.135-.294-.408v-.6a.764.764,0,0,1,.091-.441.849.849,0,0,1,.361-.239,8.164,8.164,0,0,1,1.784-.5A11.921,11.921,0,0,1,125.2.17a4.757,4.757,0,0,1,3.163.88,3.43,3.43,0,0,1,1.019,2.734V11.5a.4.4,0,0,1-.452.452h-.973a.452.452,0,0,1-.5-.429l-.114-.746a6.17,6.17,0,0,1-1.8,1.084,5.318,5.318,0,0,1-1.956.382,3.555,3.555,0,0,1-2.576-.916,3.258,3.258,0,0,1-.954-2.452,3.258,3.258,0,0,1,1.175-2.633,4.761,4.761,0,0,1,3.163-.983,12.21,12.21,0,0,1,2.847.382V4.159a2.254,2.254,0,0,0-.542-1.717,2.823,2.823,0,0,0-1.9-.5A11.635,11.635,0,0,0,121.5,2.459Z" transform="translate(-32.25 -0.046)" fill="#232f3e" fill-rule="evenodd"/>
    <path id="Path-4" data-name="Path" d="M140.7,14.072a5.566,5.566,0,0,1-1.414,2.238,3.128,3.128,0,0,1-2.1.677,4.791,4.791,0,0,1-1.287-.158.656.656,0,0,1-.363-.216.765.765,0,0,1-.113-.462v-.588c0-.286.113-.429.339-.429a2.083,2.083,0,0,1,.34.044,3.178,3.178,0,0,0,.609.046,1.99,1.99,0,0,0,1.336-.406,3.513,3.513,0,0,0,.859-1.492l.429-1.145L134.985,1.419a1.721,1.721,0,0,1-.157-.544c0-.179.1-.271.314-.271H136.5a.817.817,0,0,1,.5.113,1.226,1.226,0,0,1,.269.5l3.166,8.767,3.052-8.767a1.226,1.226,0,0,1,.269-.5.818.818,0,0,1,.5-.113h1.265c.211,0,.317.092.317.271a1.726,1.726,0,0,1-.159.544L140.7,14.072" transform="translate(-36.215 -0.161)" fill="#232f3e" fill-rule="evenodd"/>
    <path id="Shape-6" data-name="Shape" d="M46.784,21.075a26.534,26.534,0,0,1-14.966,4.579,27.08,27.08,0,0,1-18.279-6.974c-.382-.341-.042-.809.414-.544a36.792,36.792,0,0,0,18.29,4.852A36.414,36.414,0,0,0,46.2,20.127c.683-.29,1.257.45.588.954m1.683-1.921c.519.662-.572,3.394-1.063,4.614-.149.368.17.517.5.239,2.169-1.816,2.73-5.621,2.29-6.17s-4.236-1.015-6.552.612c-.357.25-.3.6.1.548,1.3-.156,4.207-.506,4.724.158" transform="translate(-3.592 -4.655)" fill="#f90" fill-rule="evenodd"/>
  </g>
</svg>
