<svg id="Component_3_1" data-name="Component 3 – 1" xmlns="http://www.w3.org/2000/svg" width="68.851" height="34.881" viewBox="0 0 68.851 34.881">
  <g id="company" transform="translate(-46.022)">
    <path id="Path_555" data-name="Path 555" d="M55.508,144.8c-5.191-.03-9.486-10.627-9.486-16.024,0-8.816,6.613-10.746,9.162-10.746a10.543,10.543,0,0,1,3.457.85,7.727,7.727,0,0,0,1.974.566,6.143,6.143,0,0,0,1.416-.459,11.35,11.35,0,0,1,4.268-1.032h.01a8.749,8.749,0,0,1,7.321,3.7l.534.8-.768.58a6.466,6.466,0,0,0-3.1,5.332,6.018,6.018,0,0,0,3.358,5.564c.481.289.979.588.979,1.24,0,.426-3.4,9.576-8.34,9.576a6.707,6.707,0,0,1-2.816-.684,5.711,5.711,0,0,0-2.507-.6,6.448,6.448,0,0,0-1.985.537,9.722,9.722,0,0,1-3.443.8Z" transform="translate(0 -109.922)"/>
    <path id="Path_556" data-name="Path 556" d="M261.707,0c.129,4.638-3.188,7.855-6.5,7.654C254.66,3.952,258.519,0,261.707,0Z" transform="translate(-194.885)"/>
  </g>
  <text id="Pay" transform="translate(37.851 28.941)" font-size="20" font-family="SegoeUI, Segoe UI"><tspan x="0" y="0">Pay</tspan></text>
</svg>
