<svg xmlns="http://www.w3.org/2000/svg" width="64.499" height="64.673" viewBox="0 0 64.499 64.673">
  <g id="Component_6_1" data-name="Component 6 – 1" transform="translate(1.25 1.25)">
    <path id="Path_25" data-name="Path 25" d="M47.727,56.545h5.636V70.636a2.818,2.818,0,0,0,.211,1.015A23.067,23.067,0,0,0,39.569,83.459a2.82,2.82,0,1,0,5.044,2.522,17.487,17.487,0,0,1,15.711-9.709h2.987a17.487,17.487,0,0,1,15.711,9.709,2.82,2.82,0,1,0,5.044-2.522A23.067,23.067,0,0,0,70.061,71.65a2.818,2.818,0,0,0,.211-1.015V65h4.41A15.345,15.345,0,0,0,90,49.669V48.091a2.818,2.818,0,0,0-2.818-2.818H79.967A15.345,15.345,0,0,0,64.636,60.589V70.735c-.451,0-.888-.1-1.339-.1H60.324a6.123,6.123,0,0,0-1.339.1V53.727A19.727,19.727,0,0,0,39.273,34H30.818A2.818,2.818,0,0,0,28,36.818,19.727,19.727,0,0,0,47.727,56.545Zm32.24-5.636h4.312a9.694,9.694,0,0,1-9.6,8.454H70.357A9.694,9.694,0,0,1,79.967,50.909ZM39.273,39.636a14.092,14.092,0,0,1,13.81,11.275l-5.355,0a14.092,14.092,0,0,1-13.81-11.275Z" transform="translate(-28 -25.546)" fill="#4f2c2d" stroke="#f8c2c4" stroke-linecap="round" stroke-linejoin="round" stroke-width="2.5"/>
    <path id="Path_26" data-name="Path 26" d="M62.386,28A12.4,12.4,0,0,0,50,40.386v1.7a2.818,2.818,0,0,0,2.818,2.818h7.341A12.4,12.4,0,0,0,72.545,32.523v-1.7A2.818,2.818,0,0,0,69.727,28ZM60.159,39.273H55.735a6.749,6.749,0,0,1,6.651-5.636H66.81a6.749,6.749,0,0,1-6.651,5.636Z" transform="translate(-19 -28)" fill="#4f2c2d" stroke="#f8c2c4" stroke-width="2.5"/>
  </g>
</svg>
