<svg id="Component_4_1" data-name="Component 4 – 1" xmlns="http://www.w3.org/2000/svg" width="60.746" height="62" viewBox="0 0 60.746 62">
  <path id="Path_8" data-name="Path 8" d="M41.358,23.418A18.306,18.306,0,1,0,59.665,41.723,18.322,18.322,0,0,0,41.358,23.418Zm0,33.5a15.2,15.2,0,1,1,15.2-15.2A15.217,15.217,0,0,1,41.358,56.922Z" transform="translate(-10.992 -10.73)" fill="#4f2c2d"/>
  <path id="Path_9" data-name="Path 9" d="M65.294,38.506l-1.1-1.522a2.056,2.056,0,0,1-.012-2.41l1.077-1.536A5.175,5.175,0,0,0,63.48,25.49L61.83,24.6a2.061,2.061,0,0,1-1.065-2.158l.316-1.852a5.172,5.172,0,0,0-4.87-6.026l-1.879-.076a2.05,2.05,0,0,1-1.89-1.485l-.545-1.79a5.184,5.184,0,0,0-7.017-3.31l-1.726.735a2.084,2.084,0,0,1-2.346-.519l-1.256-1.4a5.165,5.165,0,0,0-7.751.05L30.583,8.2a2.1,2.1,0,0,1-2.346.559L26.5,8.046a5.263,5.263,0,0,0-1.966-.393,5.177,5.177,0,0,0-4.987,3.806l-.495,1.813a2.06,2.06,0,0,1-1.877,1.51l-1.866.114a5.162,5.162,0,0,0-4.784,6.09l.343,1.84A2.062,2.062,0,0,1,9.84,25.008L8.2,25.922A5.174,5.174,0,0,0,6.542,33.5l1.1,1.51a2.055,2.055,0,0,1,.012,2.41L6.579,38.951A5.176,5.176,0,0,0,8.355,46.5l1.65.888a2.06,2.06,0,0,1,1.064,2.158L10.753,51.4a5.172,5.172,0,0,0,4.87,6.026L17.5,57.5a2.05,2.05,0,0,1,1.89,1.485l.519,1.8a5.183,5.183,0,0,0,7.016,3.311l1.724-.736A2.088,2.088,0,0,1,31,63.88l1.257,1.394a5.169,5.169,0,0,0,7.755-.05L41.24,63.8a2.1,2.1,0,0,1,2.348-.559l1.737.711a5.287,5.287,0,0,0,1.967.393,5.173,5.173,0,0,0,4.985-3.806l.495-1.815a2.066,2.066,0,0,1,1.879-1.51l1.877-.113a5.163,5.163,0,0,0,4.784-6.089l-.343-1.84A2.061,2.061,0,0,1,62,46.994l1.636-.915a5.172,5.172,0,0,0,1.662-7.573Zm-2.156,3.488a2.05,2.05,0,0,1-1.014,1.359l-1.636.913a5.162,5.162,0,0,0-2.576,5.454l.343,1.84A2.062,2.062,0,0,1,56.339,54l-1.866.114a5.161,5.161,0,0,0-4.693,3.794l-.495,1.8a2.065,2.065,0,0,1-1.992,1.522,2.119,2.119,0,0,1-.787-.152l-1.739-.711a5.269,5.269,0,0,0-1.966-.394,5.193,5.193,0,0,0-3.907,1.776l-1.231,1.41a2.039,2.039,0,0,1-1.561.709,2.019,2.019,0,0,1-1.534-.684l-1.257-1.4a5.191,5.191,0,0,0-3.856-1.726,5.109,5.109,0,0,0-2.043.419l-1.726.734a2.011,2.011,0,0,1-.811.167A2.069,2.069,0,0,1,22.9,59.9l-.519-1.8a5.185,5.185,0,0,0-4.746-3.73l-1.877-.076a2,2,0,0,1-1.51-.762,2.023,2.023,0,0,1-.431-1.636l.316-1.852a5.159,5.159,0,0,0-2.664-5.417l-1.649-.888a2.03,2.03,0,0,1-1.041-1.345,1.989,1.989,0,0,1,.33-1.662l1.078-1.536a5.159,5.159,0,0,0-.05-6.037l-1.1-1.51a2,2,0,0,1-.343-1.662A2.05,2.05,0,0,1,9.7,28.625l1.636-.913a5.162,5.162,0,0,0,2.575-5.456l-.33-1.826a2.027,2.027,0,0,1,.405-1.65,2.048,2.048,0,0,1,1.51-.785l1.866-.114a5.177,5.177,0,0,0,4.694-3.794l.495-1.813a2.064,2.064,0,0,1,1.992-1.524,2.138,2.138,0,0,1,.787.153l1.739.71A5.263,5.263,0,0,0,29.037,12a5.192,5.192,0,0,0,3.907-1.776l1.231-1.407a2.063,2.063,0,0,1,3.1-.025l1.256,1.394a5.192,5.192,0,0,0,3.857,1.726,5.123,5.123,0,0,0,2.043-.419l1.726-.735a2.009,2.009,0,0,1,.811-.165,2.067,2.067,0,0,1,1.98,1.483l.519,1.8a5.186,5.186,0,0,0,4.746,3.729l1.877.077a2.045,2.045,0,0,1,1.522.761,2.019,2.019,0,0,1,.432,1.636l-.318,1.853a5.163,5.163,0,0,0,2.664,5.417l1.65.888a2.064,2.064,0,0,1,.723,3.006l-1.077,1.536a5.162,5.162,0,0,0,.05,6.04l1.1,1.508A2.234,2.234,0,0,1,63.138,41.994Z" transform="translate(-5.545 -5)" fill="#4f2c2d"/>
  <path id="Path_10" data-name="Path 10" d="M50.9,42.479,44.1,49.24l-2.209-2.22a1.556,1.556,0,0,0-2.207,2.2l3.311,3.325a1.548,1.548,0,0,0,2.195,0l7.9-7.854A1.556,1.556,0,1,0,50.9,42.479Z" transform="translate(-16.027 -16.521)" fill="#4f2c2d"/>
</svg>
