<svg xmlns="http://www.w3.org/2000/svg" width="41.088" height="62.4" viewBox="0 0 41.088 62.4">
  <g id="noun_map_pin_478764" data-name="noun_map pin_478764" transform="translate(0.2 0.2)">
    <g id="Group_13" data-name="Group 13">
      <path id="Path_22" data-name="Path 22" d="M73.094,82.9a1.721,1.721,0,0,1-1.3-.6c-.778-.9-19.041-22.149-19.041-33.957a20.344,20.344,0,1,1,40.688,0c0,4.77-3.232,11.962-9.607,21.377-4.652,6.87-9.371,12.5-9.418,12.561a1.723,1.723,0,0,1-1.306.615Zm0-51.451a16.918,16.918,0,0,0-16.9,16.9c0,8.84,12.7,25.028,16.882,30.125,1.7-2.12,4.825-6.133,7.918-10.7,5.887-8.7,9-15.414,9-19.422A16.918,16.918,0,0,0,73.094,31.444Z" transform="translate(-52.75 -28)" fill="#4f2c2d" stroke="#f8c2c4" stroke-width="0.4"/>
    </g>
    <path id="Path_23" data-name="Path 23" d="M73.663,154.992a49.981,49.981,0,0,1-13.342-1.613c-4.36-1.264-6.571-3.075-6.571-5.384,0-2.519,2.61-4.437,7.758-5.7a1.722,1.722,0,0,1,.821,3.345c-3.834.941-4.984,2.052-5.126,2.357.459,1.226,6.575,3.549,16.461,3.549s16-2.324,16.461-3.55c-.149-.325-1.394-1.506-5.577-2.464a1.722,1.722,0,1,1,.769-3.357c5.4,1.238,8.26,3.251,8.26,5.819,0,2.308-2.211,4.12-6.571,5.384A49.983,49.983,0,0,1,73.663,154.992Z" transform="translate(-53.319 -92.992)" fill="#4f2c2d" stroke="#f8c2c4" stroke-width="0.4"/>
    <path id="Path_24" data-name="Path 24" d="M88.421,68.843a8.754,8.754,0,1,1,8.754-8.754A8.765,8.765,0,0,1,88.421,68.843Zm0-14.065a5.31,5.31,0,1,0,5.31,5.31A5.316,5.316,0,0,0,88.421,54.778Z" transform="translate(-68.078 -41.287)" fill="#4f2c2d" stroke="#f8c2c4" stroke-width="0.4"/>
  </g>
</svg>
