<svg xmlns="http://www.w3.org/2000/svg" width="56.622" height="63.312" viewBox="0 0 56.622 63.312">
  <g id="Component_5_1" data-name="Component 5 – 1" transform="translate(0.649 0.662)">
    <path id="Path_17" data-name="Path 17" d="M53.93,89.8a4.76,4.76,0,0,0-3.855-1.369A4.875,4.875,0,0,0,44.723,82.5a4.995,4.995,0,0,0-4.379-6.02L48.8,68.03a4.983,4.983,0,1,0-7.044-7.05l-16.7,16.7A8.439,8.439,0,0,1,21.1,79.947a6.21,6.21,0,0,1-3.074.017c-.874-1.36-1.7-2.474-1.873-2.712-1.8-2.457-3.459-4.958-5.393-7.958-1.989-3.08-4.5-4.4-6.9-3.632A5.012,5.012,0,0,0,2,66.809c-1.086,1.005-2.08,2.133-2,3.574.061,1.1.7,2.094,1.659,3.592.547.848,1.222,1.9,1.942,3.223a22.134,22.134,0,0,1,1.1,2.488c.136.345.278.7.426,1.06A38.491,38.491,0,0,1,6.583,84.71c.713,2.432.326,4.773-.083,7.248a24.825,24.825,0,0,0-.486,5.559,19.123,19.123,0,0,0,2.04,7.362,24.069,24.069,0,0,0,4.59,6.342,22.294,22.294,0,0,0,12.192,6.471,16.405,16.405,0,0,0,2.449.189,13.727,13.727,0,0,0,3.605-.466,11.133,11.133,0,0,0,5.035-2.875l13.95-13.946h0l4.054-4.054A4.773,4.773,0,0,0,53.93,89.8Zm-6.45-4.616a3.06,3.06,0,0,1,0,4.323l-.291.292h0l-4.054,4.054h0l-.292.292a3.057,3.057,0,1,1-4.324-4.323l2.32-2.32,2.32-2.32A3.06,3.06,0,0,1,47.479,85.182Zm-7.627-6.9a3.158,3.158,0,0,1,2.233,5.392l-2.54,2.54-2.32,2.322h0l-.219.22a3.159,3.159,0,0,1-4.467-4.467l2.149-2.15h0l2.93-2.93A3.138,3.138,0,0,1,39.852,78.279Zm-5.215,34.975c-2.284,2.283-5.667,3.223-9.527,2.638a20.468,20.468,0,0,1-11.174-5.959q-.486-.486-.935-.989a10.383,10.383,0,0,0,2.826.4,9.222,9.222,0,0,0,1.546-.128,7.41,7.41,0,0,0,5.381-3.81.759.759,0,1,0-1.325-.738,5.864,5.864,0,0,1-4.31,3.055,8.854,8.854,0,0,1-6.071-1.3,21.31,21.31,0,0,1-1.357-2.347,17.332,17.332,0,0,1-1.854-6.661A23.069,23.069,0,0,1,8.3,92.26c.426-2.568.863-5.224.035-8.057a40.434,40.434,0,0,0-1.516-4.157c-.142-.341-.28-.69-.413-1.027a23.856,23.856,0,0,0-1.2-2.69C4.457,74.951,3.76,73.864,3.2,72.991A7.507,7.507,0,0,1,1.828,70.28c-.022-.386.129-.941,1.414-2.128A3.239,3.239,0,0,1,4.424,67.4c2.2-.71,4.093,1.782,4.8,2.885,1.955,3.029,3.632,5.557,5.461,8.051h0l0,.005c.937,1.259,3.457,4.9,3.856,6.614a.912.912,0,1,0,1.777-.413,11.142,11.142,0,0,0-1.095-2.568,8.76,8.76,0,0,0,2.3-.252,10.259,10.259,0,0,0,4.811-2.754l16.7-16.7a3.159,3.159,0,1,1,4.467,4.467L36.329,77.914l-5.08,5.079a4.981,4.981,0,0,0,4.587,8.391,4.878,4.878,0,0,0,5.927,5.357,4.76,4.76,0,0,0,1.369,3.853h0a4.743,4.743,0,0,0,2.8,1.36Zm18-18-1.9,1.9h0l-2.151,2.151a2.947,2.947,0,0,1-4.163,0h0a2.947,2.947,0,0,1,0-4.163l4.056-4.056a2.944,2.944,0,1,1,4.162,4.165Z" transform="translate(-0.001 -55.881)" fill="#4f2c2d" stroke="#4f2c2d" stroke-width="1.3"/>
    <path id="Path_18" data-name="Path 18" d="M198.436,72.935a.912.912,0,1,0,1.293-1.283l-4.56-4.608a.912.912,0,1,0-1.3,1.284Z" transform="translate(-181.836 -62.692)" fill="#4f2c2d" stroke="#4f2c2d" stroke-width="1.3"/>
    <path id="Path_19" data-name="Path 19" d="M308.3,7.116a.912.912,0,0,0,.889.71.931.931,0,0,0,.2-.022.912.912,0,0,0,.688-1.091L308.644.387a.912.912,0,1,0-1.779.4Z" transform="translate(-288.18 0.344)" fill="#4f2c2d" stroke="#4f2c2d" stroke-width="1.3"/>
    <path id="Path_20" data-name="Path 20" d="M403.992,11.231a.912.912,0,0,0,1.161-.561l2.128-6.125a.912.912,0,0,0-1.723-.6l-2.128,6.125A.912.912,0,0,0,403.992,11.231Z" transform="translate(-378.851 -3.109)" fill="#4f2c2d" stroke="#4f2c2d" stroke-width="1.3"/>
    <path id="Path_21" data-name="Path 21" d="M465.428,81.244a.912.912,0,0,0,1.282.137l5.047-4.07a.913.913,0,0,0-1.144-1.422l-5.048,4.074a.912.912,0,0,0-.137,1.281Z" transform="translate(-436.938 -71.064)" fill="#4f2c2d" stroke="#4f2c2d" stroke-width="1.3"/>
  </g>
</svg>
