<svg xmlns="http://www.w3.org/2000/svg" width="222.903" height="193.787" viewBox="0 0 222.903 193.787">
  <g id="Illustration" transform="translate(-6.862 -15.894)">
    <g id="Group_516" data-name="Group 516" transform="translate(6.862 15.894)">
      <g id="Group_515" data-name="Group 515" transform="translate(0 0)">
        <path id="Path_374" data-name="Path 374" d="M80.734,0A80.734,80.734,0,1,1,0,80.734,80.734,80.734,0,0,1,80.734,0Z" transform="translate(34.574 13.397)" fill="#fff"/>
        <g id="Group_507" data-name="Group 507" transform="translate(32.392 49.255)">
          <path id="Path_357" data-name="Path 357" d="M131.572,265.063c-.483,2.328.284,7.174.293,10.647A82.4,82.4,0,0,1,107.119,265.4c-2.777-7.327-1.378-14.658-1.649-23.151-.386-11.983-7.632-12.568-16.477-17.97-7.374-4.507-14.145-9.061-19.606-14.3A83.321,83.321,0,0,1,68.038,195a82.483,82.483,0,0,1,13.2-44.9c1.454,1.87,3.579,2.455,7.157,2.616q3.314-3.352,7-1.615l1.043,2.4a5.767,5.767,0,0,0,1.484,4.66,13.522,13.522,0,0,0,7.446-.941c3.621-.734,7.615-3.159,11.317-3.278,15.078-.479,5.47,9.952.907,16.643-5.211,7.649-7.556,18.483-17.211,22.032-7.06,2.595-15.663-.946-15.99,10.176-.259,8.773,9.913,18.084,17.584,20.722,9.388,3.223,21.468-1.556,30.593,3.965,6.856,4.147,4.986,17.707,3.295,25.708C135,257.278,132.442,260.861,131.572,265.063Z" transform="translate(-68.038 -150.1)" fill="#ebfaff"/>
        </g>
        <g id="Group_508" data-name="Group 508" transform="translate(80.208 11.399)">
          <path id="Path_359" data-name="Path 359" d="M207.576,80.524c-2.086,3.1-5.317,5.55-6.318,9.142-1.068,3.829.471,8.616-2.332,11.431-4.338-2.934-6.225-8.54-6.038-13.768.114-3.1.581-6.844-1.917-8.684-2.213-1.632-6.195-1.17-6.971-3.812-.331-1.128.174-2.391-.22-3.5-.428-1.217-1.755-1.819-2.731-2.663a2.55,2.55,0,0,1-.242-.237A82.489,82.489,0,0,1,210.76,60.82c.382,6.776.606,14.082-3.184,19.7Z" transform="translate(-180.808 -60.82)" fill="#ebfaff"/>
        </g>
        <g id="Group_509" data-name="Group 509" transform="translate(132.573 33.888)">
          <path id="Path_360" data-name="Path 360" d="M369.957,174.129a82.927,82.927,0,0,1-48.545,75.479c1.064-3.167,3.129-6.186,4.685-9.214,2.735-5.321,4.02-11.275,4.719-17.215.373-3.172.25-7.06-2.5-8.68-1.433-.844-3.193-.8-4.855-.823a41.735,41.735,0,0,1-8.73-1.064c-3.07-.712-6.229-1.883-8.2-4.346-2.943-3.68-2.362-8.955-1.632-13.611q1.126-7.174,2.252-14.344c.615-3.931,1.743-8.535,5.453-9.986,2.54-.992,5.372-.081,8.094.123,8,.589,15.434-5.092,23.444-4.668a13.211,13.211,0,0,0,4.189-.034,6.247,6.247,0,0,0,2.569-1.539c4.21-3.939,4.071-10.63,2.841-16.265-.538-2.472-1.281-5.016-3-6.873s-4.681-2.794-6.861-1.5c-3.5,2.078-3.133,8.315-7,9.6-3.413,1.128-6.941-2.854-10.38-1.811-4.8,1.45-2.994,9.85-7.263,12.474-2.213,1.357-5.1.509-7.4-.674-2.866-1.476-5.716-3.795-6.089-6.992-.5-4.266,3.507-7.6,7.229-9.744s8.044-4.528,8.887-8.735c.284-1.4.127-2.858.428-4.253.865-4.058,5.139-6.356,9.091-7.62s8.345-2.235,10.982-5.44a16.989,16.989,0,0,0,1.628-2.514,82.7,82.7,0,0,1,25.967,60.269Z" transform="translate(-304.306 -113.86)" fill="#ebfaff"/>
        </g>
        <g id="Group_510" data-name="Group 510" transform="translate(91.111 77.734)">
          <circle id="Ellipse_39" data-name="Ellipse 39" cx="15.408" cy="15.408" r="15.408" fill="#71d6f6"/>
          <g id="Group_518" data-name="Group 518" transform="translate(9.161 7.966)">
            <path id="Union_1" data-name="Union 1" d="M0,9.028a6.114,6.114,0,0,1,3.567-5.48L2.227,2.21A1.444,1.444,0,0,1,3.524,0H9.476a1.444,1.444,0,0,1,1.3,2.21L9.433,3.548A6.113,6.113,0,0,1,13,9.028C13,12.418,10.089,13,6.5,13S0,12.418,0,9.028Z" transform="translate(-0.273 -0.278)" fill="#fff"/>
            <line id="Line_7" data-name="Line 7" x1="3.477" transform="translate(4.506 3.569)" fill="none"/>
          </g>
          <rect id="Rectangle_194" data-name="Rectangle 194" width="12" height="1" transform="translate(8.889 11.687)" fill="#71d6f6"/>
        </g>
        <g id="Group_511" data-name="Group 511" transform="translate(144.713 21.924)">
          <circle id="Ellipse_40" data-name="Ellipse 40" cx="15.408" cy="15.408" r="15.408" fill="#ffc443"/>
          <g id="Group_517" data-name="Group 517" transform="translate(10.099 8.584)">
            <g id="Group_69" data-name="Group 69" transform="translate(0 0)">
              <path id="Path_58" data-name="Path 58" d="M10.617,3.708c0,2.048-2.377,2.252-5.309,2.252S0,5.756,0,3.708,2.377,0,5.309,0,10.617,1.66,10.617,3.708Z" transform="translate(0 6.907)" fill="#fff" stroke="#fff" stroke-width="2"/>
              <ellipse id="Ellipse_5" data-name="Ellipse 5" cx="2.342" cy="2.342" rx="2.342" ry="2.342" transform="translate(2.967 0)" fill="#fff" stroke="#fff" stroke-width="2"/>
            </g>
          </g>
        </g>
        <g id="Group_512" data-name="Group 512" transform="translate(148.671 106.521)">
          <circle id="Ellipse_41" data-name="Ellipse 41" cx="15.408" cy="15.408" r="15.408" fill="#ff808b"/>
          <path id="Path_376" data-name="Path 376" d="M13.457,13.278V5.9a.356.356,0,0,0-.095-.243L7.009.115a.356.356,0,0,0-.524,0L.095,5.661A.356.356,0,0,0,0,5.9v7.373a.356.356,0,0,0,.356.356H4.362a.356.356,0,0,0,.356-.356v-4.4a.356.356,0,0,1,.358-.356h3.3a.356.356,0,0,1,.358.356v4.4a.356.356,0,0,0,.356.356H13.1A.356.356,0,0,0,13.457,13.278Z" transform="translate(8.948 7.844)" fill="#fff"/>
        </g>
        <g id="Group_513" data-name="Group 513" transform="translate(41.809 10.275)">
          <circle id="Ellipse_42" data-name="Ellipse 42" cx="15.408" cy="15.408" r="15.408" fill="#b76ce8"/>
          <path id="Path_375" data-name="Path 375" d="M4.082.929C3.943.465,3.8.094,3.34.048L2.458,0C1.531-.045,0,1.346,0,3.666.046,7.7,6.077,14.288,10.066,14.659c2.366.232,3.85-1.16,3.9-2.134v-.835c.046-.464-.325-.649-.789-.835-.881-.325-1.763-.742-2.644-1.067a1.058,1.058,0,0,0-.928.232,6.718,6.718,0,0,0-.835.789c-.232.186-.464.278-.7.046A9.593,9.593,0,0,1,3.618,6.031a.473.473,0,0,1,.139-.7c.325-.278.557-.51.835-.789a.962.962,0,0,0,.325-.881C4.639,2.784,4.36,1.81,4.082.929Z" transform="translate(8.722 7.729)" fill="#f5f5fb" fill-rule="evenodd"/>
        </g>
        <g id="Group_514" data-name="Group 514" transform="translate(55.962 137.937)">
          <circle id="Ellipse_43" data-name="Ellipse 43" cx="15.408" cy="15.408" r="15.408" fill="#b0d47c"/>
          <rect id="Rectangle_192" data-name="Rectangle 192" width="11" height="9" rx="1" transform="translate(10.038 12.485)" fill="#fff"/>
          <path id="Path_377" data-name="Path 377" d="M11.275,1.938H8.984V1.585A1.585,1.585,0,0,0,7.4,0H5.637A1.585,1.585,0,0,0,4.052,1.585v.352H1.938A1.938,1.938,0,0,0,0,3.876V5.813A1.233,1.233,0,0,0,.7,6.925v2.94A1.938,1.938,0,0,0,2.642,11.8H10.57a1.938,1.938,0,0,0,1.938-1.938V6.925a1.233,1.233,0,0,0,.7-1.112V3.876A1.938,1.938,0,0,0,11.275,1.938ZM5.109,1.585a.528.528,0,0,1,.528-.529H7.4a.529.529,0,0,1,.529.529v.352H5.109ZM1.057,3.876a.881.881,0,0,1,.881-.881h9.337a.881.881,0,0,1,.881.881V5.813a.176.176,0,0,1-.176.176H8.4a1.233,1.233,0,0,0-1.182-.881H5.813a1.233,1.233,0,0,0-1.182.881h-3.4a.176.176,0,0,1-.176-.176Zm4.58,2.466a.176.176,0,0,1,.176-.176H7.223a.176.176,0,0,1,.176.176v.352a.176.176,0,0,1-.176.176H5.813a.176.176,0,0,1-.176-.176Zm4.933,4.4H2.642a.881.881,0,0,1-.881-.881V7.047h2.87a1.233,1.233,0,0,0,1.182.881H7.223A1.233,1.233,0,0,0,8.4,7.047h3.046V9.865A.881.881,0,0,1,10.57,10.746Z" transform="translate(8.488 9.694)" fill="#fff"/>
          <rect id="Rectangle_193" data-name="Rectangle 193" width="15" height="1" rx="0.5" transform="translate(8.038 16.485)" fill="#b0d47c"/>
        </g>
        <path id="Path_368" data-name="Path 368" d="M418.513,443.552a2.057,2.057,0,0,1-1.459-.6l-4.541-4.541a2.064,2.064,0,0,1,0-2.919l4.541-4.541a2.064,2.064,0,0,1,2.919,0l4.541,4.541a2.064,2.064,0,0,1,0,2.919l-4.541,4.541A2.056,2.056,0,0,1,418.513,443.552Zm-1.622-6.605,1.622,1.622,1.622-1.622-1.622-1.622Z" transform="translate(-254.177 -249.765)" fill="#6583fe"/>
        <path id="Path_369" data-name="Path 369" d="M58.584,401.027a2.057,2.057,0,0,1-1.459-.6l-4.541-4.541a2.064,2.064,0,0,1,0-2.919l4.541-4.541a2.064,2.064,0,0,1,2.919,0l4.541,4.541a2.064,2.064,0,0,1,0,2.919l-4.541,4.541A2.058,2.058,0,0,1,58.584,401.027Zm-1.622-6.605,1.622,1.622,1.622-1.622L58.584,392.8Z" transform="translate(-30.544 -232.031)" fill="#6583fe"/>
        <path id="Path_370" data-name="Path 370" d="M449.744,386.216a2.064,2.064,0,0,1-2.064-2.064,2.48,2.48,0,0,0-2.477-2.477,2.064,2.064,0,0,1,0-4.128,2.48,2.48,0,0,0,2.477-2.477,2.064,2.064,0,0,1,4.128,0,2.48,2.48,0,0,0,2.477,2.477,2.064,2.064,0,1,1,0,4.128,2.48,2.48,0,0,0-2.477,2.477A2.064,2.064,0,0,1,449.744,386.216Z" transform="translate(-233.446 -232.74)" fill="#ff808b"/>
        <path id="Path_371" data-name="Path 371" d="M43.468,131.466A2.064,2.064,0,0,1,41.4,129.4a2.48,2.48,0,0,0-2.477-2.477,2.064,2.064,0,0,1,0-4.128,2.48,2.48,0,0,0,2.477-2.477,2.064,2.064,0,1,1,4.128,0,2.48,2.48,0,0,0,2.477,2.477,2.064,2.064,0,1,1,0,4.128,2.48,2.48,0,0,0-2.477,2.477A2.064,2.064,0,0,1,43.468,131.466Z" transform="translate(-36.862 -99.079)" fill="#ff7eb8"/>
        <path id="Path_372" data-name="Path 372" d="M405.194,60.19a2.064,2.064,0,0,1-2.064-2.064,2.48,2.48,0,0,0-2.477-2.477,2.064,2.064,0,1,1,0-4.128,2.48,2.48,0,0,0,2.477-2.477,2.064,2.064,0,1,1,4.128,0,2.48,2.48,0,0,0,2.477,2.477,2.064,2.064,0,1,1,0,4.128,2.48,2.48,0,0,0-2.477,2.477A2.064,2.064,0,0,1,405.194,60.19Z" transform="translate(-199.33 -46.979)" fill="#4261ce"/>
      </g>
    </g>
    <path id="Path_373" data-name="Path 373" d="M62.978,133.8a2.028,2.028,0,0,0,.026.262A82.537,82.537,0,0,0,84.711,189.69a17.432,17.432,0,0,0,.611,8.957,16.884,16.884,0,0,0,16.54,11.843,17.357,17.357,0,0,0,8.129-2.013A82.03,82.03,0,0,0,145.8,216.6a82.89,82.89,0,0,0,82.795-82.533,1.321,1.321,0,0,0,0-.53,82.422,82.422,0,0,0-20.649-54.366,17.438,17.438,0,0,0-17.332-19.64,17.386,17.386,0,0,0-6.108,1.1,82.243,82.243,0,0,0-37.588-9.614Q146.361,51,145.8,51a82.385,82.385,0,0,0-30.744,5.9,2.064,2.064,0,1,0,1.534,3.833,78.246,78.246,0,0,1,7.961-2.695A59.574,59.574,0,0,0,108.5,75.624c-.258.414-.511.834-.763,1.255q-2.75-.938-5.38-2.013a17.467,17.467,0,1,0-20.881,6.809A82.742,82.742,0,0,0,63,133.542a2.023,2.023,0,0,0-.026.261Zm23.266,51.4a78.391,78.391,0,0,1-19.086-49.331H93.482a121.186,121.186,0,0,0,7.093,39.731A17.5,17.5,0,0,0,86.244,185.2Zm101.172-91.02a117.649,117.649,0,0,1,6.573,37.561H154.446a17.451,17.451,0,0,0-6.582-12.6V87.054a126.209,126.209,0,0,0,26.674-3.209,17.529,17.529,0,0,0,12.878,10.333Zm6.171,49.981a17.466,17.466,0,0,0-7.486,32.717,88.715,88.715,0,0,1-4.149,8.888,124.19,124.19,0,0,0-34.088-5.211V146.493a17.479,17.479,0,0,0,6.346-10.625h39.778C193.943,138.647,193.808,141.422,193.586,144.159Zm-75.095,43.506a122.2,122.2,0,0,1,25.244-2.983V212.4c-9.074-.629-17.771-5.4-25.289-13.9a17.418,17.418,0,0,0,.045-10.839Zm31.862-54.85a13.343,13.343,0,1,1-13.343-13.344A13.359,13.359,0,0,1,150.354,132.815Zm-2.49,51.868a120.369,120.369,0,0,1,31.981,4.754c-8.478,13.861-19.813,22.115-31.981,22.957ZM173.381,79.877a122.134,122.134,0,0,1-25.517,3.048V55.206c9.606.66,18.727,5.928,26.521,15.338a17.378,17.378,0,0,0-1,9.333Zm-29.646,36.814a17.466,17.466,0,0,0-24.16,15.048H97.6c.3-19.1,4.8-36.52,12.036-49.91a124.117,124.117,0,0,0,34.094,5.216ZM105.091,175.85a116.064,116.064,0,0,1-7.48-39.982h22.2a17.465,17.465,0,0,0,23.924,13.072v31.613a126.044,126.044,0,0,0-27.014,3.289A17.515,17.515,0,0,0,105.091,175.85Zm8.756,29.863a17.6,17.6,0,0,0,2.669-3.2,51.685,51.685,0,0,0,8.091,7.076A78.023,78.023,0,0,1,113.847,205.713Zm70.035-14.991a92.8,92.8,0,0,1,10.988,4.522,78.518,78.518,0,0,1-27.788,14.3C173.389,205.139,179.1,198.767,183.882,190.723Zm14.408,1.624a95.087,95.087,0,0,0-12.358-5.284,93.057,93.057,0,0,0,3.989-8.621,17.469,17.469,0,1,0,7.787-34.023c.227-2.823.365-5.685.409-8.55h26.326A78.5,78.5,0,0,1,198.29,192.347Zm26.15-60.608H198.117a122.709,122.709,0,0,0-6.236-37.314,17.5,17.5,0,0,0,14.744-10.442,78.274,78.274,0,0,1,17.814,47.755Zm-44.309-68.7a17.61,17.61,0,0,0-3.607,3.651,53.058,53.058,0,0,0-9.451-8.626A78.123,78.123,0,0,1,180.131,63.036Zm-36.4-7.825V82.918a120.159,120.159,0,0,1-31.978-4.767C120.029,64.677,131.278,56.071,143.735,55.211ZM87.708,82.828a17.4,17.4,0,0,0,11.85-4.647q2.981,1.265,6.114,2.361c-7.627,14.361-11.907,32.251-12.2,51.2H67.159a78.606,78.606,0,0,1,18.8-49q.863.086,1.75.088Z" transform="translate(-23.63 -23.779)" fill="none" stroke="#71d6f6" stroke-width="1"/>
  </g>
</svg>
