<svg id="brands-and-logotypes_3_" data-name="brands-and-logotypes (3)" xmlns="http://www.w3.org/2000/svg" width="44.974" height="26.984" viewBox="0 0 44.974 26.984">
  <path id="Path_420" data-name="Path 420" d="M228.584,114.292a13.492,13.492,0,0,1-26.984,0h0a13.492,13.492,0,1,1,26.984,0Z" transform="translate(-183.61 -100.8)" fill="#ffb600"/>
  <path id="Path_423" data-name="Path 423" d="M13.349,100.8a13.492,13.492,0,0,0,.143,26.984,13.649,13.649,0,0,0,9.066-3.5h0a12.825,12.825,0,0,0,1.356-1.428H21.13a16.468,16.468,0,0,1-1-1.356h4.783a9.144,9.144,0,0,0,.785-1.428H19.346a8.508,8.508,0,0,1-.571-1.428H26.2a14.175,14.175,0,0,0,.714-4.283,18.426,18.426,0,0,0-.286-2.855H18.346a10.437,10.437,0,0,1,.357-1.428h7.424a8.51,8.51,0,0,0-.571-1.428H19.274a14.157,14.157,0,0,1,.785-1.428h4.783a6.788,6.788,0,0,0-1.071-1.428H21.13a12.166,12.166,0,0,1,1.356-1.356,13.173,13.173,0,0,0-9.066-3.5C13.421,100.8,13.421,100.8,13.349,100.8Z" transform="translate(0 -100.8)" fill="#ff5050"/>
  <g id="Group_545" data-name="Group 545" transform="translate(1.285 9.994)">
    <path id="Path_426" data-name="Path 426" d="M183.67,226.282l.214-1.214a3.091,3.091,0,0,1-.357.071c-.5,0-.571-.286-.5-.428l.428-2.5h.785l.214-1.356h-.714l.143-.857h-1.428s-.857,4.711-.857,5.283a1.072,1.072,0,0,0,1.142,1.214A2.191,2.191,0,0,0,183.67,226.282Z" transform="translate(-166.68 -219.357)" fill="#fff"/>
    <path id="Path_427" data-name="Path 427" d="M210.4,231.92a2.271,2.271,0,0,0,2.5,2.5,3.706,3.706,0,0,0,1.5-.214l.286-1.356a4.279,4.279,0,0,1-1.5.357c-1.571,0-1.285-1.142-1.285-1.142h2.927a9.256,9.256,0,0,0,.214-1.285,1.934,1.934,0,0,0-2.07-2.07C211.471,228.565,210.4,230.136,210.4,231.92Zm2.5-2.07c.785,0,.642.928.642,1h-1.57C211.97,230.778,212.113,229.85,212.9,229.85Z" transform="translate(-192.91 -227.28)" fill="#fff"/>
    <path id="Path_428" data-name="Path 428" d="M299.926,219.724l.286-1.571a3.508,3.508,0,0,1-1.214.357c-1,0-1.428-.785-1.428-1.642,0-1.713.857-2.641,1.856-2.641a2.384,2.384,0,0,1,1.285.428l.214-1.5a5.019,5.019,0,0,0-1.642-.357c-1.642,0-3.284,1.428-3.284,4.14,0,1.785.857,3,2.57,3A6.408,6.408,0,0,0,299.926,219.724Z" transform="translate(-270.872 -212.8)" fill="#fff"/>
    <path id="Path_429" data-name="Path 429" d="M89.113,227.2a5.056,5.056,0,0,0-1.713.286l-.214,1.214a4.22,4.22,0,0,1,1.571-.286c.5,0,.928.071.928.5,0,.286-.071.357-.071.357H88.97c-1.214,0-2.57.5-2.57,2.142,0,1.285.857,1.57,1.356,1.57a2.145,2.145,0,0,0,1.5-.642l-.071.571h1.285l.571-3.926A1.692,1.692,0,0,0,89.113,227.2Zm.286,3.212c0,.214-.143,1.356-1,1.356a.557.557,0,0,1-.571-.571c0-.357.214-.857,1.285-.857A1.125,1.125,0,0,0,89.4,230.412Z" transform="translate(-79.975 -225.915)" fill="#fff"/>
    <path id="Path_430" data-name="Path 430" d="M136.842,232.254a1.83,1.83,0,0,0,2.142-1.856c0-1.785-1.713-1.428-1.713-2.142,0-.357.286-.5.785-.5.214,0,1,.071,1,.071l.214-1.285a5.424,5.424,0,0,0-1.356-.143c-1.071,0-2.142.428-2.142,1.856,0,1.642,1.785,1.5,1.785,2.142,0,.428-.5.5-.857.5a4.668,4.668,0,0,1-1.285-.214l-.214,1.285C135.271,232.111,135.628,232.254,136.842,232.254Z" transform="translate(-124.421 -225.186)" fill="#fff"/>
    <path id="Path_431" data-name="Path 431" d="M431.269,214.4l-.286,1.927a1.979,1.979,0,0,0-1.356-.714c-1.285,0-2.427,1.57-2.427,3.427,0,1.142.571,2.356,1.785,2.356a1.906,1.906,0,0,0,1.356-.571l-.071.5H431.7l1.071-6.853Zm-.643,3.783c0,.785-.357,1.785-1.142,1.785-.5,0-.785-.428-.785-1.142,0-1.142.5-1.856,1.142-1.856C430.341,216.97,430.627,217.327,430.627,218.183Z" transform="translate(-390.365 -214.257)" fill="#fff"/>
    <path id="Path_432" data-name="Path 432" d="M15.756,221.253l.857-5.14.143,5.14h1l1.856-5.14-.785,5.14h1.5l1.142-6.853H19.112l-1.428,4.212-.071-4.212h-2.07L14.4,221.253Z" transform="translate(-14.4 -214.257)" fill="#fff"/>
    <path id="Path_433" data-name="Path 433" d="M261.57,234.368c.428-2.356.5-4.283,1.5-3.926a5.6,5.6,0,0,1,.5-1.642h-.286c-.642,0-1.142.857-1.142.857l.143-.785h-1.356L260,234.44h1.57Z" transform="translate(-238.084 -227.372)" fill="#fff"/>
    <path id="Path_434" data-name="Path 434" d="M349.113,227.2a5.056,5.056,0,0,0-1.713.286l-.214,1.214a4.22,4.22,0,0,1,1.57-.286c.5,0,.928.071.928.5,0,.286-.071.357-.071.357h-.642c-1.214,0-2.57.5-2.57,2.142,0,1.285.857,1.57,1.356,1.57a2.145,2.145,0,0,0,1.5-.642l-.071.571h1.285l.571-3.926A1.667,1.667,0,0,0,349.113,227.2Zm.357,3.212c0,.214-.143,1.356-1,1.356a.557.557,0,0,1-.571-.571c0-.357.214-.857,1.285-.857C349.4,230.412,349.4,230.412,349.47,230.412Z" transform="translate(-316.775 -225.915)" fill="#fff"/>
    <path id="Path_435" data-name="Path 435" d="M395.97,234.368c.428-2.356.5-4.283,1.5-3.926a5.6,5.6,0,0,1,.5-1.642h-.286c-.642,0-1.142.857-1.142.857l.143-.785h-1.356l-.928,5.568h1.57Z" transform="translate(-360.491 -227.372)" fill="#fff"/>
  </g>
</svg>
