<svg id="business-and-finance" xmlns="http://www.w3.org/2000/svg" width="91.18" height="23.302" viewBox="0 0 91.18 23.302">
  <path id="Path_409" data-name="Path 409" d="M354.871,221.2H349.95a.962.962,0,0,0-.724.579L347.2,234.515a.384.384,0,0,0,.434.434h2.605a.384.384,0,0,0,.434-.434l.579-3.618a.662.662,0,0,1,.724-.579h1.592q4.993,0,5.645-4.776a3.794,3.794,0,0,0-.579-3.184,5.838,5.838,0,0,0-3.763-1.158m.579,4.776c-.289,1.737-1.592,1.737-2.895,1.737h-.868l.579-3.329c0-.145.145-.289.434-.289h.289c.868,0,1.737,0,2.171.579.289.145.289.579.289,1.3" transform="translate(-284.387 -215.121)" fill="#139ad6"/>
  <g id="Group_541" data-name="Group 541" transform="translate(27.354 6.079)">
    <path id="Path_410" data-name="Path 410" d="M158.871,221.2H153.95a.962.962,0,0,0-.724.579L151.2,234.515a.384.384,0,0,0,.434.434h2.316a.962.962,0,0,0,.724-.579l.579-3.474a.662.662,0,0,1,.724-.579h1.592q4.993,0,5.645-4.776a3.794,3.794,0,0,0-.579-3.184,5.563,5.563,0,0,0-3.763-1.158m.579,4.776c-.289,1.737-1.592,1.737-2.895,1.737h-.724l.579-3.329c0-.145.145-.289.434-.289h.289c.868,0,1.737,0,2.171.579a1.55,1.55,0,0,1,.145,1.3" transform="translate(-151.2 -221.2)" fill="#263b80"/>
    <path id="Path_411" data-name="Path 411" d="M225.134,245.489h-2.316c-.145,0-.434.145-.434.289l-.145.724-.145-.289a3.4,3.4,0,0,0-2.75-1.013,5.561,5.561,0,0,0-5.355,4.776,4.314,4.314,0,0,0,.868,3.618,3.647,3.647,0,0,0,3.039,1.158,4.626,4.626,0,0,0,3.329-1.3l-.145.724a.384.384,0,0,0,.434.434h2.171a.962.962,0,0,0,.724-.579l1.3-8.1c-.145-.145-.434-.434-.579-.434m-3.329,4.631a2.8,2.8,0,0,1-2.75,2.316,2.314,2.314,0,0,1-1.592-.579,3.086,3.086,0,0,1-.434-1.737,2.581,2.581,0,0,1,4.2-1.737,2.527,2.527,0,0,1,.579,1.737" transform="translate(-202.556 -240.858)" fill="#263b80"/>
  </g>
  <path id="Path_412" data-name="Path 412" d="M420.334,245.489h-2.316c-.145,0-.434.145-.434.289l-.145.724-.145-.289a3.4,3.4,0,0,0-2.75-1.013,5.561,5.561,0,0,0-5.355,4.776,4.314,4.314,0,0,0,.868,3.618,3.647,3.647,0,0,0,3.039,1.158,4.626,4.626,0,0,0,3.329-1.3l-.145.724a.384.384,0,0,0,.434.434h2.171a.962.962,0,0,0,.724-.579l1.3-8.1c-.145-.145-.289-.434-.579-.434M417,250.121a2.8,2.8,0,0,1-2.75,2.316,2.315,2.315,0,0,1-1.592-.579,3.086,3.086,0,0,1-.434-1.737,2.581,2.581,0,0,1,4.2-1.737,1.661,1.661,0,0,1,.579,1.737" transform="translate(-335.087 -234.779)" fill="#139ad6"/>
  <path id="Path_413" data-name="Path 413" d="M295.144,246.8h-2.46a.752.752,0,0,0-.579.289l-3.184,4.921-1.447-4.631a.669.669,0,0,0-.724-.434h-2.316c-.289,0-.434.289-.434.579l2.605,7.671-2.46,3.474c-.145.289,0,.724.289.724h2.316a.752.752,0,0,0,.579-.289l7.96-11.434c.434-.434.145-.868-.145-.868" transform="translate(-232.621 -236.09)" fill="#263b80"/>
  <path id="Path_414" data-name="Path 414" d="M477.226,222.032,475.2,235.058a.384.384,0,0,0,.434.434h2.026a.962.962,0,0,0,.724-.579l2.026-12.736a.384.384,0,0,0-.434-.434H477.66c-.145-.145-.289,0-.434.289" transform="translate(-389.23 -215.52)" fill="#139ad6"/>
  <path id="Path_415" data-name="Path 415" d="M16.644,189.337c-1.013-1.158-2.895-1.737-5.5-1.737H3.908a1.242,1.242,0,0,0-1.013.868L0,207.428a.662.662,0,0,0,.579.724H5.066l1.158-7.092v.289a1.242,1.242,0,0,1,1.013-.868H9.407c4.2,0,7.381-1.737,8.394-6.513v-.434h0a5.055,5.055,0,0,0-1.158-4.2" transform="translate(0 -187.6)" fill="#263b80"/>
  <path id="Path_416" data-name="Path 416" d="M38.626,220.4h0v.434c-1.013,4.921-4.2,6.513-8.394,6.513H28.06a1.242,1.242,0,0,0-1.013.868L25.6,237.044a.53.53,0,0,0,.579.579h3.763a.81.81,0,0,0,.868-.724v-.145l.724-4.487v-.289a.81.81,0,0,1,.868-.724h.579c3.618,0,6.513-1.447,7.237-5.789a5.321,5.321,0,0,0-.724-4.342,1.482,1.482,0,0,0-.868-.724" transform="translate(-20.969 -214.466)" fill="#139ad6"/>
  <path id="Path_417" data-name="Path 417" d="M44.821,216.034c-.145,0-.289-.145-.434-.145a.532.532,0,0,1-.434-.145,7.647,7.647,0,0,0-1.881-.145H36.426a.532.532,0,0,0-.434.145.8.8,0,0,0-.434.724L34.4,223.994v.289a1.242,1.242,0,0,1,1.013-.868h2.171c4.2,0,7.381-1.737,8.394-6.513a.532.532,0,0,1,.145-.434c-.289-.145-.434-.289-.724-.289-.434-.145-.434-.145-.579-.145" transform="translate(-28.177 -210.534)" fill="#232c65"/>
</svg>
