<svg id="stars_icon" data-name="stars icon" xmlns="http://www.w3.org/2000/svg" width="99.639" height="15.511" viewBox="0 0 99.639 15.511">
  <path id="Path_402" data-name="Path 402" d="M18.432,10.165,14.724,13.6l.967,4.96a.561.561,0,0,1-.822.584l-4.385-2.466L6.056,19.129a.548.548,0,0,1-.8-.584l.981-4.958-3.7-3.445a.548.548,0,0,1,.31-.945l5.018-.6L9.994,4.015a.543.543,0,0,1,.987,0L13.11,8.605l5.018.611a.548.548,0,0,1,.3.948Z" transform="translate(-2.363 -3.7)" fill="#fec037"/>
  <path id="Path_403" data-name="Path 403" d="M18.432,10.165,14.724,13.6l.967,4.96a.561.561,0,0,1-.822.584l-4.385-2.466L6.056,19.129a.548.548,0,0,1-.8-.584l.981-4.958-3.7-3.445a.548.548,0,0,1,.31-.945l5.018-.6L9.994,4.015a.543.543,0,0,1,.987,0L13.11,8.605l5.018.611a.548.548,0,0,1,.3.948Z" transform="translate(18.485 -3.7)" fill="#fec037"/>
  <path id="Path_404" data-name="Path 404" d="M18.432,10.165,14.724,13.6l.967,4.96a.561.561,0,0,1-.822.584l-4.385-2.466L6.056,19.129a.548.548,0,0,1-.8-.584l.981-4.958-3.7-3.445a.548.548,0,0,1,.31-.945l5.018-.6L9.994,4.015a.543.543,0,0,1,.987,0L13.11,8.605l5.018.611a.548.548,0,0,1,.3.948Z" transform="translate(39.333 -3.7)" fill="#fec037"/>
  <path id="Path_405" data-name="Path 405" d="M18.432,10.165,14.724,13.6l.967,4.96a.561.561,0,0,1-.822.584l-4.385-2.466L6.056,19.129a.548.548,0,0,1-.8-.584l.981-4.958-3.7-3.445a.548.548,0,0,1,.31-.945l5.018-.6L9.994,4.015a.543.543,0,0,1,.987,0L13.11,8.605l5.018.611a.548.548,0,0,1,.3.948Z" transform="translate(60.181 -3.7)" fill="#fec037"/>
  <path id="Path_406" data-name="Path 406" d="M18.432,10.165,14.724,13.6l.967,4.96a.561.561,0,0,1-.822.584l-4.385-2.466L6.056,19.129a.548.548,0,0,1-.8-.584l.981-4.958-3.7-3.445a.548.548,0,0,1,.31-.945l5.018-.6L9.994,4.015a.543.543,0,0,1,.987,0L13.11,8.605l5.018.611a.548.548,0,0,1,.3.948Z" transform="translate(81.029 -3.7)" fill="#fec037"/>
</svg>
