<svg id="Компонент_4_1" data-name="Компонент 4 – 1" xmlns="http://www.w3.org/2000/svg" width="48.644" height="48.644" viewBox="0 0 48.644 48.644">
  <path id="Контур_606" data-name="Контур 606" d="M36.14,46.033a4.331,4.331,0,0,1-1.745-.371l-3.028-1.34c-4.481-1.984-4.872-10.594-.892-19.6,3.369-7.621,8.76-12.943,13.116-12.943a4.84,4.84,0,0,1,1.98.4l3.028,1.34a4.33,4.33,0,0,1,2.209,5.705l-.89,2.021a4.415,4.415,0,0,1-5.7,2.209l-3.028-1.338c-.772-.345-3.093,1.309-4.814,5.207a13.428,13.428,0,0,0-1.234,4.99c-.014,1.24.3,1.938.622,2.075l3.028,1.336A4.333,4.333,0,0,1,41,41.428l-.89,2.017a4.351,4.351,0,0,1-3.969,2.588ZM43.589,13.8c-3.462,0-8.3,5.043-11.261,11.735-3.758,8.5-3.107,15.619-.144,16.93l3.028,1.34a2.338,2.338,0,0,0,3.03-1.174l.89-2.019a2.3,2.3,0,0,0-1.176-3.032L34.93,36.248c-1.2-.531-1.855-1.936-1.83-3.954a15.316,15.316,0,0,1,1.407-5.785c1.421-3.215,3.969-6.459,6.455-6.459A2.541,2.541,0,0,1,42,20.264L45.024,21.6a2.334,2.334,0,0,0,3.03-1.174l.892-2.023a2.269,2.269,0,0,0,.043-1.757,2.246,2.246,0,0,0-1.214-1.271L44.746,14.04a2.756,2.756,0,0,0-1.157-.237Z" transform="translate(-13.679 -5.809)" fill="#2f8bce"/>
  <path id="Контур_607" data-name="Контур 607" d="M24.32,48.644c-3.885,0-6.273-.849-7.3-2.592-1.423-2.426.322-5.545,1.6-7.826L18.8,37.9a1.014,1.014,0,0,1,1.771.987l-.186.336c-.975,1.745-2.45,4.386-1.615,5.809.612,1.038,2.531,1.587,5.549,1.587a22.3,22.3,0,1,0-14.7-5.531A1.014,1.014,0,1,1,8.286,42.61,24.323,24.323,0,1,1,24.32,48.644Z" transform="translate(0 0)" fill="#2f8bce"/>
</svg>
