<svg id="Component_1_1" data-name="Component 1 – 1" xmlns="http://www.w3.org/2000/svg" width="171.215" height="41.423" viewBox="0 0 171.215 41.423">
  <g id="Group_2" data-name="Group 2">
    <g id="Group_1" data-name="Group 1" transform="translate(0 0)">
      <path id="Path_1" data-name="Path 1" d="M600.531,44.506a.275.275,0,0,0,.375.377s3.483-3,10.316-4.415a13.609,13.609,0,0,0,8.217-4.858v0s.636-.43.442.468a7.761,7.761,0,0,1-.359.85,8.006,8.006,0,0,1-2.5,3.052,11.4,11.4,0,0,1-1.319.91c-.123.074-.253.148-.385.222-.057.031-.1.065-.162.1l-.011,0a19.482,19.482,0,0,1-2.524,1.158c-1.961.743-4.216,1.453-6.494,2.27-1.019.372-6.8,2.64-8.449,6.753q.7-.528,1.493-1.033l.165-.1q.324-.2.661-.395l.215-.121q.334-.187.685-.367l.21-.108q.4-.2.82-.39l.113-.053c.332-.148.673-.293,1.024-.43h0a25.561,25.561,0,0,1,2.871-.93,31.986,31.986,0,0,1,6.609-1.534A13.866,13.866,0,0,0,624.851,32.8C614.428,30.671,605.474,35.876,600.531,44.506Z" transform="translate(-577.567 -13.924)" fill="#fff"/>
      <path id="Path_2" data-name="Path 2" d="M601.475,49.494a.366.366,0,0,1-.7.1s-1.331-5.967-7.5-12.9a18.1,18.1,0,0,1-4.9-11.709h0s-.337-.964-.844.147a11.013,11.013,0,0,0-.292,1.192,10.651,10.651,0,0,0,.245,5.243,15.061,15.061,0,0,0,.684,2.017c.072.178.151.361.231.544.036.078.062.152.1.23l.01.013a25.837,25.837,0,0,0,1.771,3.238c1.5,2.351,3.342,4.9,5.122,7.58.791,1.208,5.155,8.218,3.646,13.916-.218-.747-.473-1.51-.772-2.289-.03-.079-.064-.16-.1-.239q-.185-.469-.392-.947c-.043-.1-.088-.2-.132-.3-.14-.309-.285-.621-.44-.935-.045-.093-.09-.187-.138-.28q-.266-.532-.563-1.068c-.028-.049-.052-.1-.079-.146-.236-.422-.485-.846-.75-1.272h0a33.809,33.809,0,0,0-2.323-3.273,42.619,42.619,0,0,0-5.829-6.887,18.436,18.436,0,0,1-2.695-23.788C597.645,23.7,603.061,36.363,601.475,49.494Z" transform="translate(-581.679 -17.685)" fill="#fff"/>
    </g>
  </g>
  <g id="Group_4" data-name="Group 4" transform="translate(58.601 11.353)">
    <g id="Group_3" data-name="Group 3">
      <path id="Path_3" data-name="Path 3" d="M552.2,67.928a5.89,5.89,0,0,1-2.591,5.255,12.227,12.227,0,0,1-6.9,1.733,16.173,16.173,0,0,1-4.4-.539,6.5,6.5,0,0,1-2.741-1.354,3.505,3.505,0,0,1-.271-1.383,8.453,8.453,0,0,1,.121-1.442,5.989,5.989,0,0,1,1.115-2.68h.271a2.242,2.242,0,0,0-.03.38,5.239,5.239,0,0,0,1.764,3.858,6.621,6.621,0,0,0,4.805,1.7,5.165,5.165,0,0,0,3.15-.83,2.367,2.367,0,0,0,1.1-1.894,2.494,2.494,0,0,0-.754-1.82A8.307,8.307,0,0,0,544.4,67.4l-4.912-2.212a6.128,6.128,0,0,1-3.014-2.534,5.473,5.473,0,0,1-.753-2.824,5.575,5.575,0,0,1,2.2-4.777,8.111,8.111,0,0,1,4.882-1.339q1.989,0,5.092.29h2.351l-.662,4.748h-.3a3.11,3.11,0,0,0-1.3-2.592,5.28,5.28,0,0,0-3.3-.991,5.99,5.99,0,0,0-3.1.67,2.242,2.242,0,0,0-1.19,1.776q-.121,1.369,1.807,2.33a8.093,8.093,0,0,0,.874.378l5.636,2.533A5.234,5.234,0,0,1,552.2,67.928Z" transform="translate(-535.299 -53.717)" fill="#c97579"/>
      <path id="Path_4" data-name="Path 4" d="M572.509,60.01a6.318,6.318,0,0,1-.557,2.592,5.528,5.528,0,0,1-1.613,2.1,6.444,6.444,0,0,1-4.039,1.486,7.057,7.057,0,0,1-4.1-1.34v-.29a4,4,0,0,0,1.643-.568,7.75,7.75,0,0,0,.889-.714,3.974,3.974,0,0,0,1.009-1.835A7.3,7.3,0,0,0,566,59.953a4.766,4.766,0,0,0-1.024-3.378,3.607,3.607,0,0,0-2.743-1.078h-1.055V72.3a1.926,1.926,0,0,0,1.928,1.835h.392v.292H552.68v-.292h.392a1.843,1.843,0,0,0,1.657-.9A1.737,1.737,0,0,0,555,72.3V55.992a1.851,1.851,0,0,0-.632-1.179,1.889,1.889,0,0,0-1.3-.48h-.362l-.03-.292h11.481a10.356,10.356,0,0,1,6.329,1.66A5.016,5.016,0,0,1,572.509,60.01Z" transform="translate(-530.832 -53.634)" fill="#c97579"/>
      <path id="Path_5" data-name="Path 5" d="M603.226,57.245a4.891,4.891,0,0,1,.483,2.11,6.95,6.95,0,0,1-.241,1.922,6.54,6.54,0,0,1-.754,1.645,5.154,5.154,0,0,1-3.826,2.156A5.3,5.3,0,0,1,601,66.214a8.706,8.706,0,0,1,1.868,2.271,23.958,23.958,0,0,0,3.465,4.805,3.4,3.4,0,0,0,2.29.845v.292h-3.767a13.455,13.455,0,0,1-5.6-.845,6.873,6.873,0,0,1-3.435-4.107,17.462,17.462,0,0,1-.466-1.776c-.132-.621-.241-1.072-.332-1.354a5.631,5.631,0,0,0-.317-.787,2.082,2.082,0,0,0-.391-.568,2.368,2.368,0,0,0-.845-.524v-.29h.483a2.833,2.833,0,0,0,2.622-1.544,4.681,4.681,0,0,0,.557-1.762q.106-.947.106-1.179V59.4q-.211-3.844-3.435-3.844h-1.326V72.3a1.713,1.713,0,0,0,.573,1.3,1.9,1.9,0,0,0,1.355.539h.362v.292H583.939v-.292h.392a1.888,1.888,0,0,0,1.341-.524,1.791,1.791,0,0,0,.587-1.281V56.167a1.78,1.78,0,0,0-.964-1.6,2.063,2.063,0,0,0-.964-.233h-.392v-.292h11.783Q601.627,54.041,603.226,57.245Z" transform="translate(-522.799 -53.634)" fill="#c97579"/>
      <path id="Path_6" data-name="Path 6" d="M572.418,74.135a1.928,1.928,0,0,0,1.929-1.835V56.138a1.81,1.81,0,0,0-.588-1.282,1.889,1.889,0,0,0-1.341-.523h-.392v-.292h10.819v.292h-.392a1.889,1.889,0,0,0-1.341.523,1.8,1.8,0,0,0-.587,1.282V72.3a1.714,1.714,0,0,0,.573,1.3,1.9,1.9,0,0,0,1.355.539h.392v.292H572.026v-.292Z" transform="translate(-525.861 -53.634)" fill="#c97579"/>
      <path id="Path_7" data-name="Path 7" d="M617.127,74.917a12.4,12.4,0,0,1-8.573-2.84,9.929,9.929,0,0,1-3.18-7.8,9.773,9.773,0,0,1,3.2-7.761q3.194-2.8,8.859-2.8a33.633,33.633,0,0,1,5.033.392,18.309,18.309,0,0,1,3.947.947l-.3,5.563h-.271q-1.567-5.447-6.9-5.447Q612,55.173,612,64.55a12.6,12.6,0,0,0,1.432,6.582,5.184,5.184,0,0,0,7.141,1.5,2.639,2.639,0,0,0,1.192-2.286l.029-3.99a1.188,1.188,0,0,0-.406-.975,1.728,1.728,0,0,0-1.13-.336h-.483v-.292H629.9v.292h-.451a1.713,1.713,0,0,0-1.145.336,1.135,1.135,0,0,0-.362.975v4.8q-1.688,2.068-6.118,3.175A19.045,19.045,0,0,1,617.127,74.917Z" transform="translate(-517.291 -53.717)" fill="#c97579"/>
    </g>
  </g>
</svg>
