<svg id="Component_2_1" data-name="Component 2 – 1" xmlns="http://www.w3.org/2000/svg" width="56" height="64" viewBox="0 0 56 64">
  <path id="Path_623" data-name="Path 623" d="M61,17.3,33,1,5,17.3V65h7V32H54V65h7ZM21,24H15V20h6Zm10,0H25V20h6Zm10,0H35V20h6Zm10,0H45V20h6Z" transform="translate(-5 -1)" fill="#c97579"/>
  <path id="Path_624" data-name="Path 624" d="M15,65H25V57H23v3.1l-1-1-1,1V57H15Z" transform="translate(-5 -1)" fill="#c97579"/>
  <path id="Path_625" data-name="Path 625" d="M28,65H38V57H36v3.1l-1.1-1-.9,1V57H28Z" transform="translate(-5 -1)" fill="#c97579"/>
  <path id="Path_626" data-name="Path 626" d="M41,65H51V57H49v3.1l-1-1-1,1V57H41Z" transform="translate(-5 -1)" fill="#c97579"/>
  <path id="Path_627" data-name="Path 627" d="M15,54H25V46H23v3.1l-1-1-1,1V46H15Z" transform="translate(-5 -1)" fill="#c97579"/>
  <path id="Path_628" data-name="Path 628" d="M28,54H38V46H36v3.1l-1-1-1,1V46H28Z" transform="translate(-5 -1)" fill="#c97579"/>
  <path id="Path_629" data-name="Path 629" d="M41,46v8H51V46H49v3.1l-1-1-1,1V46Z" transform="translate(-5 -1)" fill="#c97579"/>
  <path id="Path_630" data-name="Path 630" d="M15,35v8H25V35H23v3.1l-1-1-1,1V35Z" transform="translate(-5 -1)" fill="#c97579"/>
  <path id="Path_631" data-name="Path 631" d="M28,35v8H38V35H36v3.1l-1-1-1,1V35Z" transform="translate(-5 -1)" fill="#c97579"/>
</svg>
