<svg id="Component_2_1" data-name="Component 2 – 1" xmlns="http://www.w3.org/2000/svg" width="60.875" height="60.875" viewBox="0 0 60.875 60.875">
  <rect id="Rectangle_304" data-name="Rectangle 304" width="4.351" height="13.046" transform="translate(4.351)" fill="#c97579"/>
  <path id="Path_620" data-name="Path 620" d="M2.5,22.86V70.689H6.851v-8.7H11.2v8.7h4.351V22.86Zm8.7,34.782H6.851V53.3H11.2Zm0-8.7H6.851V44.6H11.2Zm0-8.7H6.851V35.9H11.2Zm0-8.7H6.851V27.2H11.2Z" transform="translate(-2.5 -9.814)" fill="#c97579"/>
  <path id="Path_621" data-name="Path 621" d="M29.64,16.07V68.249H51.382V16.07Zm4.351,4.351h8.7v4.345h-8.7Zm0,17.391h4.345v4.351H33.991Zm4.345,21.742H33.991V55.2h4.345Zm8.7,0H42.686V55.2h4.351Zm0-8.7h-8.7V46.507h8.7Zm0-17.4H42.686V29.116h4.351Z" transform="translate(-12.249 -7.375)" fill="#c97579"/>
  <path id="Path_622" data-name="Path 622" d="M70.36,43.21V78H87.751V43.21Zm8.7,26.093H74.7V64.952h4.351Zm0-8.7H74.7V56.256h4.351Zm4.345-8.7H74.7V47.561h8.7Z" transform="translate(-26.876 -17.123)" fill="#c97579"/>
</svg>
