<svg id="Component_7_1" data-name="Component 7 – 1" xmlns="http://www.w3.org/2000/svg" width="41.567" height="44.864" viewBox="0 0 41.567 44.864">
  <g id="Group_638" data-name="Group 638" transform="matrix(-0.259, -0.966, 0.966, -0.259, 143.203, 611.299)">
    <g id="Group_1" data-name="Group 1">
      <path id="Path_1" data-name="Path 1" d="M599.947,42.015a.219.219,0,0,0,.3.3,19.343,19.343,0,0,1,8.207-3.512,10.827,10.827,0,0,0,6.537-3.865v0s.506-.342.352.372a6.175,6.175,0,0,1-.286.676,6.369,6.369,0,0,1-1.991,2.428,9.071,9.071,0,0,1-1.049.724c-.1.059-.2.118-.306.177-.045.025-.083.052-.129.076l-.009,0a15.5,15.5,0,0,1-2.008.921c-1.56.591-3.354,1.156-5.166,1.806-.811.3-5.41,2.1-6.722,5.372q.556-.42,1.188-.822l.131-.08q.258-.159.526-.314l.171-.1q.266-.148.545-.292l.167-.086q.318-.159.652-.31l.09-.042c.264-.118.535-.233.815-.342h0a20.334,20.334,0,0,1,2.284-.74,25.447,25.447,0,0,1,5.258-1.22,11.031,11.031,0,0,0,9.794-10.45C611,31.008,603.88,35.149,599.947,42.015Z" fill="#c97579"/>
      <path id="Path_2" data-name="Path 2" d="M597.428,42.991a.291.291,0,0,1-.556.083s-1.059-4.747-5.964-10.265a14.4,14.4,0,0,1-3.9-9.315h0s-.268-.767-.671.117a8.733,8.733,0,0,0-.232.948,8.472,8.472,0,0,0,.2,4.171,11.976,11.976,0,0,0,.544,1.6c.057.142.12.287.184.433.029.062.049.121.079.183l.008.01a20.558,20.558,0,0,0,1.409,2.576c1.2,1.87,2.659,3.9,4.075,6.03.629.961,4.1,6.538,2.9,11.071-.173-.594-.376-1.2-.614-1.821-.024-.063-.051-.127-.076-.19q-.147-.373-.312-.753c-.034-.079-.07-.158-.1-.238-.111-.246-.227-.494-.35-.744-.036-.074-.072-.149-.11-.223q-.211-.423-.448-.85c-.022-.039-.041-.077-.063-.116-.188-.336-.386-.673-.6-1.012h0a26.914,26.914,0,0,0-1.848-2.6,33.907,33.907,0,0,0-4.637-5.479A14.667,14.667,0,0,1,584.2,17.685C594.381,22.468,598.689,32.544,597.428,42.991Z" fill="#c97579"/>
    </g>
  </g>
</svg>
