<svg id="USA_flag_icon" data-name="USA flag icon" xmlns="http://www.w3.org/2000/svg" width="43.834" height="43.834" viewBox="0 0 43.834 43.834">
  <g id="Group_572" data-name="Group 572" transform="translate(0.09)">
    <rect id="Rectangle_241" data-name="Rectangle 241" width="43.638" height="0.001" transform="translate(0.008 23.967)" fill="#c42126"/>
    <rect id="Rectangle_242" data-name="Rectangle 242" width="39.091" height="0.001" transform="translate(2.281 12.002)" fill="#c42126"/>
    <rect id="Rectangle_243" data-name="Rectangle 243" width="42.198" height="0.001" transform="translate(0.727 15.99)" fill="#c42126"/>
    <path id="Path_471" data-name="Path 471" d="M101.779,431.346h0Z" transform="translate(-92.45 -391.428)" fill="#c42126"/>
    <path id="Path_472" data-name="Path 472" d="M224.271,0c-.43,0-.858.016-1.281.04h2.563C225.128.016,224.7,0,224.271,0Z" transform="translate(-202.444 0)" fill="#c42126"/>
    <rect id="Rectangle_244" data-name="Rectangle 244" width="43.652" height="0.001" transform="translate(0 19.978)" fill="#c42126"/>
  </g>
  <path id="Path_473" data-name="Path 473" d="M290.349,47.512h10.466a22.029,22.029,0,0,0-4.288-3.987h-7.859A20.835,20.835,0,0,1,290.349,47.512Z" transform="translate(-261.954 -39.497)" fill="#e7e7e7"/>
  <path id="Path_474" data-name="Path 474" d="M247.585,4.418h7.859A21.8,21.8,0,0,0,244.071.43H243.4C245.384.68,246.3,2.152,247.585,4.418Z" transform="translate(-220.872 -0.39)" fill="#dc3027"/>
  <path id="Path_475" data-name="Path 475" d="M331.535,133.7a21.775,21.775,0,0,0-1.554-3.987H317.94c.244,1.28.436,2.617.579,3.987Z" transform="translate(-288.518 -117.707)" fill="#e7e7e7"/>
  <path id="Path_476" data-name="Path 476" d="M300.88,90.6H313.6a21.931,21.931,0,0,0-2.6-3.988H299.886A35.178,35.178,0,0,1,300.88,90.6Z" transform="translate(-272.135 -78.597)" fill="#dc3027"/>
  <path id="Path_477" data-name="Path 477" d="M329.178,219.88h13.273c.063-.674.1-1.358.1-2.049,0-.654-.034-1.3-.09-1.939H329.181C329.224,217.219,329.224,218.555,329.178,219.88Z" transform="translate(-298.716 -195.914)" fill="#e7e7e7"/>
  <path id="Path_478" data-name="Path 478" d="M332.456,176.789a21.826,21.826,0,0,0-.727-3.987H318.154c.136,1.306.226,2.641.27,3.987Z" transform="translate(-288.712 -156.811)" fill="#dc3027"/>
  <path id="Path_479" data-name="Path 479" d="M315.465,306.063h12.212a21.743,21.743,0,0,0,1.58-3.988h-13.2C315.91,303.447,315.713,304.784,315.465,306.063Z" transform="translate(-286.272 -274.121)" fill="#e7e7e7"/>
  <path id="Path_480" data-name="Path 480" d="M334.914,262.975a21.782,21.782,0,0,0,.75-3.987H321.978c-.047,1.347-.139,2.682-.279,3.987Z" transform="translate(-291.929 -235.021)" fill="#dc3027"/>
  <path id="Path_481" data-name="Path 481" d="M296.936,392.248a22.044,22.044,0,0,0,4.352-3.987H291a20.37,20.37,0,0,1-1.713,3.987Z" transform="translate(-262.52 -352.332)" fill="#e7e7e7"/>
  <g id="Group_573" data-name="Group 573" transform="translate(20.99 31.942)">
    <path id="Path_482" data-name="Path 482" d="M303.625,349.155H314.3a21.949,21.949,0,0,0,2.637-3.988h-12.3A34.694,34.694,0,0,1,303.625,349.155Z" transform="translate(-296.517 -345.167)" fill="#dc3027"/>
    <path id="Path_483" data-name="Path 483" d="M226.951,473.462l-.133,0Z" transform="translate(-226.818 -461.585)" fill="#dc3027"/>
    <path id="Path_484" data-name="Path 484" d="M236.837,435.276a21.815,21.815,0,0,0,12.5-3.916H241.4C239.995,433.785,239.066,435.276,236.837,435.276Z" transform="translate(-235.91 -423.384)" fill="#dc3027"/>
  </g>
  <path id="Path_485" data-name="Path 485" d="M229.049,473.525c-.266,0-.531-.006-.794-.016C228.521,473.518,228.786,473.525,229.049,473.525Z" transform="translate(-207.132 -429.69)" fill="#c42126"/>
  <path id="Path_486" data-name="Path 486" d="M76.212,43.525H58.036a22.029,22.029,0,0,0-4.289,3.987H77.893A20.834,20.834,0,0,0,76.212,43.525Z" transform="translate(-48.773 -39.497)" fill="#f3f4f5"/>
  <path id="Path_487" data-name="Path 487" d="M100.092,4.418h18.176C116.98,2.152,115.341.68,113.353.43h-1.888A21.794,21.794,0,0,0,100.092,4.418Z" transform="translate(-90.83 -0.39)" fill="#e73625"/>
  <path id="Path_488" data-name="Path 488" d="M8.835,133.7H38.71c-.143-1.37-.335-2.707-.579-3.987H10.389A21.768,21.768,0,0,0,8.835,133.7Z" transform="translate(-8.018 -117.707)" fill="#f3f4f5"/>
  <path id="Path_489" data-name="Path 489" d="M28.238,86.609a21.945,21.945,0,0,0-2.6,3.988H53.378a35.143,35.143,0,0,0-.993-3.988Z" transform="translate(-23.265 -78.594)" fill="#e73625"/>
  <path id="Path_490" data-name="Path 490" d="M0,217.834c0,.691.036,1.374.1,2.049H30.962c.046-1.325.046-2.661,0-3.987H.092C.036,216.535,0,217.181,0,217.834Z" transform="translate(-0.002 -195.917)" fill="#f3f4f5"/>
  <path id="Path_491" data-name="Path 491" d="M.978,176.789H31.85c-.044-1.346-.134-2.681-.27-3.987H1.7A21.8,21.8,0,0,0,.978,176.789Z" transform="translate(-0.888 -156.811)" fill="#e73625"/>
  <path id="Path_492" data-name="Path 492" d="M39.008,302.072H9.175a21.758,21.758,0,0,0,1.58,3.988H38.417C38.665,304.781,38.862,303.444,39.008,302.072Z" transform="translate(-8.326 -274.118)" fill="#f3f4f5"/>
  <path id="Path_493" data-name="Path 493" d="M1.818,262.975H31.651c.139-1.3.232-2.641.279-3.987H1.068A21.808,21.808,0,0,0,1.818,262.975Z" transform="translate(-0.969 -235.021)" fill="#e73625"/>
  <path id="Path_494" data-name="Path 494" d="M59.1,392.248H77.058a20.357,20.357,0,0,0,1.713-3.987H54.753A22.035,22.035,0,0,0,59.1,392.248Z" transform="translate(-49.687 -352.332)" fill="#f3f4f5"/>
  <g id="Group_574" data-name="Group 574" transform="translate(2.429 31.942)">
    <path id="Path_495" data-name="Path 495" d="M26.254,345.166a21.955,21.955,0,0,0,2.637,3.988H52.91a34.764,34.764,0,0,0,1.006-3.988Z" transform="translate(-26.254 -345.166)" fill="#e73625"/>
    <path id="Path_496" data-name="Path 496" d="M113.363,435.255l.133,0c.264.009.528.016.794.016,2.229,0,4.046-1.49,5.455-3.916H101.793A21.8,21.8,0,0,0,113.363,435.255Z" transform="translate(-94.803 -423.383)" fill="#e73625"/>
  </g>
  <path id="Path_497" data-name="Path 497" d="M22.379.123A21.911,21.911,0,0,0,1.008,20.054H22.379V.123Z" transform="translate(-0.915 -0.112)" fill="#283991"/>
  <g id="Group_575" data-name="Group 575" transform="translate(0.737 1.519)">
    <path id="Path_498" data-name="Path 498" d="M33.507,134.187l.334,1.028h1.082l-.875.636.334,1.029-.875-.636-.875.636.334-1.029-.875-.636h1.082Z" transform="translate(-29.859 -123.288)" fill="#efefef"/>
    <path id="Path_499" data-name="Path 499" d="M33.507,173.438l.334,1.029h1.082l-.875.636.334,1.029-.875-.636-.875.636.334-1.029-.875-.636h1.082Z" transform="translate(-29.859 -158.907)" fill="#efefef"/>
    <path id="Path_500" data-name="Path 500" d="M72.761,75.3l.334,1.028h1.081l-.875.636.334,1.028-.875-.635-.875.635.334-1.028-.875-.636h1.082Z" transform="translate(-65.48 -69.847)" fill="#efefef"/>
    <path id="Path_501" data-name="Path 501" d="M72.761,114.554l.334,1.028h1.081l-.875.635.334,1.029-.875-.635-.875.635.334-1.029-.875-.635h1.082Z" transform="translate(-65.48 -105.472)" fill="#efefef"/>
    <path id="Path_502" data-name="Path 502" d="M72.761,153.812l.334,1.029h1.081l-.875.635.334,1.029-.875-.636-.875.636.334-1.029-.875-.635h1.082Z" transform="translate(-65.48 -141.097)" fill="#efefef"/>
    <path id="Path_503" data-name="Path 503" d="M8.861,165.854l-.334-1.029.875-.635H8.32l-.024-.075c-.119.367-.226.739-.325,1.115l.015-.011Z" transform="translate(-7.971 -150.447)" fill="#efefef"/>
    <path id="Path_504" data-name="Path 504" d="M37.194,97.619l.875-.636.875.636-.334-1.029.875-.636H38.4l-.334-1.028-.334,1.028h-.4c-.074.112-.146.225-.218.339l.41.3Z" transform="translate(-34.421 -87.66)" fill="#efefef"/>
    <path id="Path_505" data-name="Path 505" d="M78.062,48.182l.875.635L78.6,47.789l.875-.636h-.625q-.8.595-1.534,1.259l-.132.4Z" transform="translate(-70.781 -44.308)" fill="#efefef"/>
    <path id="Path_506" data-name="Path 506" d="M116.452,27.834l.875-.636.875.636-.334-1.029.875-.635H117.66l-.045-.138c-.366.187-.729.382-1.084.589l.254.184Z" transform="translate(-106.413 -25.141)" fill="#efefef"/>
    <path id="Path_507" data-name="Path 507" d="M112.02,55.671l.334,1.028h1.081l-.875.636.334,1.029-.874-.636-.875.636.334-1.029L110.6,56.7h1.082Z" transform="translate(-101.106 -52.038)" fill="#efefef"/>
    <path id="Path_508" data-name="Path 508" d="M112.02,94.929l.334,1.028h1.081l-.875.636.334,1.029-.874-.636-.875.636.334-1.029-.875-.636h1.082Z" transform="translate(-101.106 -87.663)" fill="#efefef"/>
    <path id="Path_509" data-name="Path 509" d="M112.02,134.187l.334,1.028h1.081l-.875.636.334,1.029-.874-.636-.875.636.334-1.029-.875-.636h1.082Z" transform="translate(-101.106 -123.288)" fill="#efefef"/>
    <path id="Path_510" data-name="Path 510" d="M112.02,173.438l.334,1.029h1.081l-.875.636.334,1.029-.874-.636-.875.636.334-1.029-.875-.636h1.082Z" transform="translate(-101.106 -158.907)" fill="#efefef"/>
    <path id="Path_511" data-name="Path 511" d="M151.278,36.038l.334,1.028h1.081l-.874.636.334,1.028-.874-.635-.875.635.334-1.028-.875-.636h1.082Z" transform="translate(-136.731 -34.222)" fill="#efefef"/>
    <path id="Path_512" data-name="Path 512" d="M151.278,75.3l.334,1.028h1.081l-.874.636.334,1.028-.874-.635-.875.635.334-1.028-.875-.636h1.082Z" transform="translate(-136.731 -69.847)" fill="#efefef"/>
    <path id="Path_513" data-name="Path 513" d="M151.278,114.554l.334,1.028h1.081l-.874.635.334,1.029-.874-.635-.875.635.334-1.029-.875-.635h1.082Z" transform="translate(-136.731 -105.472)" fill="#efefef"/>
    <path id="Path_514" data-name="Path 514" d="M151.278,153.812l.334,1.029h1.081l-.874.635.334,1.029-.874-.636-.875.636.334-1.029-.875-.635h1.082Z" transform="translate(-136.731 -141.097)" fill="#efefef"/>
    <path id="Path_515" data-name="Path 515" d="M190.536,16.413l.334,1.028h1.081l-.875.635.334,1.029-.875-.636-.875.636L190,18.077l-.875-.635H190.2Z" transform="translate(-172.356 -16.413)" fill="#efefef"/>
    <path id="Path_516" data-name="Path 516" d="M190.536,55.671l.334,1.028h1.081l-.875.636.334,1.029-.875-.636-.875.636L190,57.335l-.875-.636H190.2Z" transform="translate(-172.356 -52.038)" fill="#efefef"/>
    <path id="Path_517" data-name="Path 517" d="M190.536,94.929l.334,1.028h1.081l-.875.636.334,1.029-.875-.636-.875.636L190,96.593l-.875-.636H190.2Z" transform="translate(-172.356 -87.663)" fill="#efefef"/>
    <path id="Path_518" data-name="Path 518" d="M190.536,134.187l.334,1.028h1.081l-.875.636.334,1.029-.875-.636-.875.636.334-1.029-.875-.636H190.2Z" transform="translate(-172.356 -123.288)" fill="#efefef"/>
    <path id="Path_519" data-name="Path 519" d="M190.536,173.438l.334,1.029h1.081l-.875.636.334,1.029-.875-.636-.875.636L190,175.1l-.875-.636H190.2Z" transform="translate(-172.356 -158.907)" fill="#efefef"/>
  </g>
</svg>
