<svg id="brands-and-logotypes_2_" data-name="brands-and-logotypes (2)" xmlns="http://www.w3.org/2000/svg" width="51.039" height="15.972" viewBox="0 0 51.039 15.972">
  <g id="Group_544" data-name="Group 544" transform="translate(4.769)">
    <g id="Group_543" data-name="Group 543">
      <path id="Path_418" data-name="Path 418" d="M43.355,100.23l-2.562,15.94h4.094l2.56-15.94Zm12.35,6.493c-1.431-.707-2.308-1.183-2.308-1.906.017-.657.742-1.33,2.359-1.33a7.125,7.125,0,0,1,3.05.59l.372.166.557-3.335a10.334,10.334,0,0,0-3.675-.657c-4.043,0-6.89,2.1-6.908,5.109-.033,2.219,2.038,3.45,3.589,4.188,1.584.758,2.123,1.249,2.123,1.922-.017,1.034-1.281,1.51-2.459,1.51a8.326,8.326,0,0,1-3.842-.821l-.539-.246-.573,3.466a12.785,12.785,0,0,0,4.566.823c4.3,0,7.093-2.07,7.128-5.275C59.158,109.17,58.066,107.824,55.705,106.723Zm14.525-6.444H67.063a2.029,2.029,0,0,0-2.14,1.282L58.84,116.17h4.3l1.183-3.163h4.807l.614,3.176h3.79Zm-4.718,9.536c.083.008,1.649-5.163,1.649-5.163l1.247,5.163Zm-28.14-9.586-4.011,10.83-.437-2.136a11.9,11.9,0,0,0-5.662-6.472l3.673,13.7h4.332L41.7,100.232H37.373Z" transform="translate(-27.262 -100.23)" fill="#2394bc"/>
    </g>
  </g>
  <path id="Path_419" data-name="Path 419" d="M9.082,102.3a2.675,2.675,0,0,0-2.664-2.053H.065L0,100.543c4.956,1.222,9.115,4.981,10.465,8.517Z" transform="translate(0 -100.245)" fill="#efc75e"/>
</svg>
